<svg width="157" height="44" viewBox="0 0 157 44" fill="none" xmlns="http://www.w3.org/2000/svg">
<path d="M59.9103 29.5402L72.1081 14.6131H60.382V9.7609H78.7461V13.9055L67.1211 28.8326H78.8809V33.6848H59.9103V29.5402ZM80.6363 28.3946C80.6363 27.2265 80.962 26.2044 81.6134 25.3283C82.2649 24.4522 83.1634 23.7671 84.3091 23.2729C85.4547 22.7562 86.7689 22.4979 88.2515 22.4979C88.9703 22.4979 89.6779 22.5652 90.3743 22.7C91.0707 22.8124 91.6772 22.9808 92.1939 23.2055V22.4305C92.1939 21.4645 91.9018 20.7232 91.3178 20.2066C90.7337 19.6899 89.8464 19.4316 88.6558 19.4316C87.6674 19.4316 86.7352 19.6 85.8591 19.937C85.0055 20.2739 84.0957 20.7569 83.1297 21.3859L81.5123 17.9489C82.6805 17.1852 83.8935 16.6123 85.1515 16.2305C86.4319 15.8486 87.7797 15.6576 89.195 15.6576C91.8457 15.6576 93.9011 16.2979 95.3613 17.5783C96.8439 18.8363 97.5852 20.6671 97.5852 23.0707V27.687C97.5852 28.2261 97.6638 28.608 97.821 28.8326C98.0008 29.0348 98.304 29.1584 98.7308 29.2033V33.6848C98.2816 33.7747 97.8547 33.8421 97.4504 33.887C97.0685 33.9319 96.7316 33.9544 96.4395 33.9544C95.4287 33.9544 94.6537 33.7522 94.1145 33.3479C93.5979 32.9435 93.2721 32.3931 93.1373 31.6968L93.0363 30.9218C92.25 31.9326 91.3066 32.7076 90.2058 33.2468C89.1276 33.7634 87.9931 34.0218 86.8026 34.0218C85.6344 34.0218 84.5787 33.7747 83.6352 33.2805C82.7142 32.7863 81.9841 32.1124 81.445 31.2587C80.9058 30.4051 80.6363 29.4504 80.6363 28.3946ZM91.3515 29.0685C91.5986 28.8663 91.8008 28.6417 91.958 28.3946C92.1152 28.1475 92.1939 27.9116 92.1939 27.687V26.1033C91.7446 25.9236 91.2392 25.7888 90.6776 25.6989C90.1384 25.5866 89.633 25.5305 89.1613 25.5305C88.1729 25.5305 87.3529 25.7551 86.7015 26.2044C86.05 26.6312 85.7243 27.204 85.7243 27.9229C85.7243 28.3272 85.8366 28.6979 86.0613 29.0348C86.2859 29.3718 86.5892 29.6413 86.971 29.8435C87.3754 30.0457 87.8471 30.1468 88.3863 30.1468C88.9254 30.1468 89.4645 30.0457 90.0037 29.8435C90.5428 29.6413 90.9921 29.383 91.3515 29.0685ZM112.712 20.6109C111.41 20.6109 110.23 20.8243 109.174 21.2511C108.119 21.6555 107.355 22.262 106.883 23.0707V33.6848H101.492V15.9946H106.445V19.5663C107.052 18.3758 107.838 17.4435 108.804 16.7696C109.77 16.0957 110.781 15.7475 111.836 15.725C112.083 15.725 112.263 15.725 112.375 15.725C112.51 15.725 112.623 15.7363 112.712 15.7587V20.6109ZM126.204 20.6109C124.901 20.6109 123.722 20.8243 122.666 21.2511C121.61 21.6555 120.846 22.262 120.374 23.0707V33.6848H114.983V15.9946H119.936V19.5663C120.543 18.3758 121.329 17.4435 122.295 16.7696C123.261 16.0957 124.272 15.7475 125.328 15.725C125.575 15.725 125.755 15.725 125.867 15.725C126.002 15.725 126.114 15.7363 126.204 15.7587V20.6109ZM128.475 33.6848V15.9946H133.866V33.6848H128.475ZM128.475 13.9729V9.08699H133.866V13.9729H128.475ZM154.607 33.6848H149.215V23.7446C149.215 22.5765 148.991 21.7341 148.541 21.2174C148.115 20.6783 147.542 20.4087 146.823 20.4087C146.329 20.4087 145.823 20.5435 145.307 20.8131C144.79 21.0826 144.318 21.4533 143.891 21.925C143.487 22.3968 143.173 22.9359 142.948 23.5424V33.6848H137.557V15.9946H142.409V18.9598C142.858 18.2634 143.42 17.6681 144.094 17.1739C144.768 16.6797 145.543 16.3091 146.419 16.062C147.295 15.7924 148.249 15.6576 149.283 15.6576C150.428 15.6576 151.349 15.871 152.046 16.2979C152.765 16.7022 153.304 17.2413 153.663 17.9152C154.045 18.5892 154.292 19.3192 154.404 20.1055C154.539 20.8692 154.607 21.6218 154.607 22.3631V33.6848Z" fill="#333333"/>
<path d="M4.88945 38.9723C1.09221 35.2276 -0.689229 29.5324 0.381427 24.2982C1.44056 18.4198 6.00621 13.2958 11.7719 11.6808C14.5945 14.5445 17.453 17.3696 20.2885 20.2179C20.8725 20.7814 21.4078 21.3949 22.0379 21.9084C20.0285 21.9289 18.0152 21.8546 16.0084 21.9327C13.2357 22.1082 10.8869 24.7234 11.0419 27.5037C11.0163 30.3097 13.5328 32.8455 16.3401 32.8288C21.8624 32.8417 27.3835 32.8276 32.9033 32.8378C36.5314 36.4698 40.1532 40.1096 43.8006 43.7237C43.2371 43.8312 42.6647 43.8018 42.096 43.7967C33.5807 43.798 25.068 43.7967 16.5553 43.798C12.238 43.8095 7.92469 42.0575 4.88945 38.9723Z" fill="#7C4EE4"/>
<path d="M10.7578 10.713C7.16802 7.14752 3.63331 3.52317 -1.40422e-06 0C8.49865 0.0332981 16.996 0.00511858 25.4947 0.0153645C26.9214 0.0345752 28.3621 -0.0653165 29.7722 0.202349C33.3863 0.700537 36.8096 2.46917 39.3108 5.12275C42.0911 8.00558 43.7176 11.9475 43.8444 15.9459C43.9392 19.2411 43.0068 22.5619 41.2228 25.3333C39.1238 28.5568 35.8798 31.1054 32.1479 32.1248C29.3611 29.2932 26.5308 26.5013 23.726 23.6851C23.1613 23.1613 22.6874 22.5337 22.0394 22.1009C22.1495 22.0099 22.2686 21.9331 22.3993 21.8716C24.1807 21.9087 25.966 21.9036 27.7487 21.8806C30.515 21.8037 32.9432 19.2756 32.8881 16.5055C32.9688 14.2553 31.446 12.0935 29.347 11.3213C28.5466 10.9755 27.6629 10.9704 26.8061 10.9781C21.6347 10.9832 16.4645 10.9768 11.2944 10.9819C11.078 10.9832 10.8987 10.8935 10.7578 10.713Z" fill="#7C4EE4"/>
</svg>
